# Blender v3.1.2 OBJ File: ''
# www.blender.org
mtllib SDCARD1.mtl
o sdCARD1
v 5.910507 21.000000 -2.100000
v 5.910507 3.000000 -2.100000
v 0.000000 24.000000 -2.100000
v 0.000000 5.029388 -2.100000
v 29.910507 21.000000 -2.100000
v 32.000000 24.000000 -2.100000
v 29.910507 3.000000 -2.100000
v 32.000000 0.000000 -2.100000
v 5.467388 0.000000 -2.100000
v 32.000000 0.000000 0.000000
v 5.467388 0.000000 0.000000
v 0.000000 5.029388 -2.100000
v 0.000000 5.029388 0.000000
v 0.000000 5.938211 0.000000
v 0.000000 6.938211 0.000000
v 0.000000 7.938210 0.000000
v 0.000000 6.938211 -1.000000
v 0.000000 7.938210 -1.000000
v 0.000000 5.938211 -1.000000
v 0.000000 8.938211 -1.000000
v 0.000000 10.938210 -1.000000
v 0.000000 10.938210 0.000000
v 0.000000 11.938210 0.000000
v 0.000000 11.938210 -1.000000
v 0.000000 12.938210 -1.000000
v 0.000000 9.938211 -1.000000
v 0.000000 9.938211 0.000000
v 0.000000 8.938211 0.000000
v 0.000000 14.938211 -1.000000
v 0.000000 14.938211 0.000000
v 0.000000 15.938211 0.000000
v 0.000000 15.938211 -1.000000
v 0.000000 16.938211 -1.000000
v 0.000000 13.938210 -1.000000
v 0.000000 13.938210 0.000000
v 0.000000 12.938210 0.000000
v 0.000000 18.938211 -1.000000
v 0.000000 18.938211 0.000000
v 0.000000 19.938211 0.000000
v 0.000000 19.938211 -1.000000
v 0.000000 20.938211 -1.000000
v 0.000000 17.938211 -1.000000
v 0.000000 17.938211 0.000000
v 0.000000 16.938211 0.000000
v 0.000000 22.938211 0.000000
v 0.000000 24.000000 0.000000
v 0.000000 22.938211 -1.000000
v 0.000000 21.938211 -1.000000
v 0.000000 21.938211 0.000000
v 0.000000 20.938211 0.000000
v 32.000000 24.000000 0.000000
v 3.000000 5.938211 0.000000
v 3.000000 6.938211 0.000000
v 3.000000 7.938210 0.000000
v 0.000000 7.938210 0.000000
v 3.000000 21.938211 0.000000
v 3.000000 22.938211 0.000000
v 0.000000 22.938211 0.000000
v 0.000000 21.938211 0.000000
v 0.000000 20.938211 0.000000
v 3.000000 20.938211 0.000000
v 3.000000 19.938211 0.000000
v 0.000000 19.938211 0.000000
v 0.000000 18.938211 0.000000
v 3.000000 18.938211 0.000000
v 3.000000 17.938211 0.000000
v 0.000000 17.938211 0.000000
v 0.000000 16.938211 0.000000
v 3.000000 16.938211 0.000000
v 3.000000 15.938211 0.000000
v 0.000000 15.938211 0.000000
v 0.000000 14.938211 0.000000
v 3.000000 14.938211 0.000000
v 3.000000 13.938210 0.000000
v 0.000000 13.938210 0.000000
v 0.000000 12.938210 0.000000
v 3.000000 12.938210 0.000000
v 3.000000 11.938210 0.000000
v 0.000000 11.938210 0.000000
v 0.000000 10.938210 0.000000
v 3.000000 10.938210 0.000000
v 3.000000 9.938211 0.000000
v 0.000000 9.938211 0.000000
v 0.000000 8.938211 0.000000
v 3.000000 8.938211 0.000000
v 0.000000 5.029388 -2.100000
v 5.910507 3.000000 -1.100000
v 29.910507 3.000000 -1.100000
v 29.910507 21.000000 -1.100000
v 5.910507 21.000000 -1.100000
v 3.000000 21.938211 -1.000000
v 0.000000 21.938211 -1.000000
v 0.000000 22.938211 -1.000000
v 3.000000 22.938211 -1.000000
v 3.000000 19.938211 -1.000000
v 0.000000 19.938211 -1.000000
v 0.000000 20.938211 -1.000000
v 3.000000 20.938211 -1.000000
v 3.000000 17.938211 -1.000000
v 0.000000 17.938211 -1.000000
v 0.000000 18.938211 -1.000000
v 3.000000 18.938211 -1.000000
v 3.000000 15.938211 -1.000000
v 0.000000 15.938211 -1.000000
v 0.000000 16.938211 -1.000000
v 3.000000 16.938211 -1.000000
v 3.000000 13.938210 -1.000000
v 0.000000 13.938210 -1.000000
v 0.000000 14.938211 -1.000000
v 3.000000 14.938211 -1.000000
v 3.000000 11.938210 -1.000000
v 0.000000 11.938210 -1.000000
v 0.000000 12.938210 -1.000000
v 3.000000 12.938210 -1.000000
v 3.000000 9.938211 -1.000000
v 0.000000 9.938211 -1.000000
v 0.000000 10.938210 -1.000000
v 3.000000 10.938210 -1.000000
v 3.000000 7.938210 -1.000000
v 0.000000 7.938210 -1.000000
v 0.000000 8.938211 -1.000000
v 3.000000 8.938211 -1.000000
v 3.000000 6.938211 -1.000000
v 3.000000 5.938211 -1.000000
vt 0.324188 0.204567
vt 0.430176 0.204567
vt 0.306526 0.239368
vt 0.418228 0.239368
vt 0.324188 0.063251
vt 0.306526 0.050949
vt 0.430176 0.063251
vt 0.447842 0.050949
vt 0.447842 0.207176
vt 0.204628 0.239369
vt 0.192265 0.239369
vt 0.204628 0.083141
vt 0.192265 0.083141
vt 0.595141 0.341266
vt 0.607507 0.341266
vt 0.607507 0.346617
vt 0.607507 0.352506
vt 0.607507 0.358394
vt 0.601619 0.352506
vt 0.601619 0.358394
vt 0.601619 0.346617
vt 0.595141 0.452968
vt 0.601619 0.364282
vt 0.601619 0.376058
vt 0.607507 0.376058
vt 0.607507 0.381947
vt 0.601619 0.381947
vt 0.601619 0.387835
vt 0.601619 0.370170
vt 0.607507 0.370170
vt 0.607507 0.364282
vt 0.601619 0.399611
vt 0.607507 0.399611
vt 0.607507 0.405499
vt 0.601619 0.405499
vt 0.601619 0.411387
vt 0.601619 0.393723
vt 0.607507 0.393723
vt 0.607507 0.387835
vt 0.601619 0.423163
vt 0.607507 0.423163
vt 0.607507 0.429052
vt 0.601619 0.429052
vt 0.601619 0.434940
vt 0.601619 0.417275
vt 0.607507 0.417275
vt 0.607507 0.411387
vt 0.607507 0.446716
vt 0.607507 0.452968
vt 0.601619 0.446716
vt 0.601619 0.440828
vt 0.607507 0.440828
vt 0.607507 0.434940
vt 0.271197 0.341267
vt 0.271197 0.529686
vt 0.258832 0.341267
vt 0.258832 0.529686
vt 0.385459 0.341266
vt 0.385459 0.482581
vt 0.373094 0.341266
vt 0.373094 0.482581
vt 0.157299 0.050948
vt 0.162651 0.050948
vt 0.157299 0.068613
vt 0.050949 0.239369
vt 0.151409 0.068613
vt 0.145523 0.068613
vt 0.145523 0.050948
vt 0.151409 0.050948
vt 0.063087 0.068613
vt 0.057201 0.068613
vt 0.050949 0.050948
vt 0.057201 0.050948
vt 0.063087 0.050948
vt 0.068977 0.050948
vt 0.068977 0.068613
vt 0.074863 0.068613
vt 0.074863 0.050948
vt 0.080753 0.050948
vt 0.080753 0.068613
vt 0.086639 0.068613
vt 0.086639 0.050948
vt 0.092529 0.050948
vt 0.092529 0.068613
vt 0.098419 0.068613
vt 0.098419 0.050948
vt 0.104305 0.050948
vt 0.104305 0.068613
vt 0.110195 0.068613
vt 0.110195 0.050948
vt 0.116081 0.050948
vt 0.116081 0.068613
vt 0.121971 0.068613
vt 0.121971 0.050948
vt 0.127857 0.050948
vt 0.127857 0.068613
vt 0.133747 0.068613
vt 0.133747 0.050948
vt 0.139633 0.050948
vt 0.139633 0.068613
vt 0.192265 0.050948
vt 0.204628 0.050948
vt 0.487357 0.482582
vt 0.487357 0.341267
vt 0.493245 0.482582
vt 0.493245 0.341267
vt 0.663412 0.050949
vt 0.663412 0.156935
vt 0.657523 0.050949
vt 0.657523 0.156935
vt 0.549739 0.192264
vt 0.549739 0.050949
vt 0.555627 0.192264
vt 0.555627 0.050949
vt 0.595142 0.660852
vt 0.595142 0.554865
vt 0.601030 0.660852
vt 0.601030 0.554865
vt 0.050949 0.482582
vt 0.050949 0.341267
vt 0.156935 0.482582
vt 0.156935 0.341267
vt 0.056837 0.584478
vt 0.056837 0.602143
vt 0.050948 0.584478
vt 0.050948 0.602143
vt 0.378983 0.584478
vt 0.378983 0.602143
vt 0.373094 0.584478
vt 0.373094 0.602143
vt 0.050949 0.943163
vt 0.056837 0.943163
vt 0.050949 0.949052
vt 0.056837 0.949052
vt 0.258833 0.888371
vt 0.258833 0.870707
vt 0.264721 0.888371
vt 0.264721 0.870707
vt 0.708816 0.554865
vt 0.708816 0.572530
vt 0.702927 0.554865
vt 0.702927 0.572530
vt 0.708816 0.674426
vt 0.708816 0.692091
vt 0.702927 0.674426
vt 0.702927 0.692091
vt 0.480879 0.949052
vt 0.480879 0.943163
vt 0.486768 0.949052
vt 0.486768 0.943163
vt 0.918497 0.572530
vt 0.918497 0.554865
vt 0.924385 0.572530
vt 0.924385 0.554865
vt 0.378983 0.704040
vt 0.378983 0.721704
vt 0.373094 0.704040
vt 0.373094 0.721704
vt 0.486768 0.704040
vt 0.486768 0.721704
vt 0.480879 0.704040
vt 0.480879 0.721704
vt 0.373095 0.943163
vt 0.378983 0.943163
vt 0.373095 0.949052
vt 0.378983 0.949052
vt 0.595142 0.899975
vt 0.595142 0.882310
vt 0.601030 0.899975
vt 0.601030 0.882310
vt 0.771197 0.170509
vt 0.771197 0.188174
vt 0.765308 0.170509
vt 0.765308 0.188174
vt 0.601030 0.762749
vt 0.601030 0.780414
vt 0.595141 0.762749
vt 0.595141 0.780414
vt 0.924973 0.347154
vt 0.924973 0.341266
vt 0.930862 0.347154
vt 0.930862 0.341266
vt 0.873095 0.188174
vt 0.873095 0.170509
vt 0.878983 0.188174
vt 0.878983 0.170509
vt 0.816601 0.674426
vt 0.816601 0.692091
vt 0.810712 0.674426
vt 0.810712 0.692091
vt 0.816601 0.793987
vt 0.816601 0.811652
vt 0.810712 0.793987
vt 0.810712 0.811652
vt 0.702927 0.919437
vt 0.702927 0.913549
vt 0.708816 0.919437
vt 0.708816 0.913549
vt 0.050949 0.841267
vt 0.050949 0.823602
vt 0.056837 0.841267
vt 0.056837 0.823602
vt 0.378983 0.823602
vt 0.378983 0.841267
vt 0.373094 0.823602
vt 0.373094 0.841267
vt 0.823077 0.341266
vt 0.823077 0.358931
vt 0.817188 0.341266
vt 0.817188 0.358931
vt 0.810712 0.919438
vt 0.810712 0.913550
vt 0.816601 0.919438
vt 0.816601 0.913550
vt 0.810713 0.572530
vt 0.810713 0.554865
vt 0.816601 0.572530
vt 0.816601 0.554865
vt 0.708816 0.793987
vt 0.708816 0.811652
vt 0.702927 0.793987
vt 0.702927 0.811652
vt 0.771197 0.050948
vt 0.771197 0.068613
vt 0.765308 0.050948
vt 0.765308 0.068613
vt 0.918497 0.889997
vt 0.924385 0.889997
vt 0.918497 0.895885
vt 0.924385 0.895885
vt 0.873095 0.068613
vt 0.873095 0.050948
vt 0.878983 0.068613
vt 0.878983 0.050948
vt 0.264721 0.751145
vt 0.264721 0.768810
vt 0.258832 0.751145
vt 0.258832 0.768810
vt 0.056837 0.704040
vt 0.056837 0.721704
vt 0.050948 0.704040
vt 0.050948 0.721704
vt 0.918497 0.788100
vt 0.918497 0.782212
vt 0.924386 0.788100
vt 0.924386 0.782212
vt 0.709404 0.358931
vt 0.709404 0.341266
vt 0.715292 0.358931
vt 0.715292 0.341266
vt 0.264721 0.631583
vt 0.264721 0.649248
vt 0.258832 0.631583
vt 0.258832 0.649248
vt 0.918497 0.674426
vt 0.924386 0.674426
vt 0.918497 0.680315
vt 0.924386 0.680315
vt 0.486768 0.584478
vt 0.486768 0.602143
vt 0.480879 0.584478
vt 0.480879 0.602143
vt 0.486768 0.841267
vt 0.480879 0.841267
vt 0.486768 0.823602
vt 0.480879 0.823602
vn 0.0000 0.0000 -1.0000
vn 0.0000 -1.0000 0.0000
vn -1.0000 0.0000 0.0000
vn 0.0000 1.0000 0.0000
vn 1.0000 0.0000 0.0000
vn 0.0000 0.0000 1.0000
vn -0.6770 -0.7360 0.0000
usemtl Material.001
s off
f 1/1/1 2/2/1 3/3/1
f 3/3/1 2/2/1 4/4/1
f 1/1/1 3/3/1 5/5/1
f 5/5/1 3/3/1 6/6/1
f 5/5/1 6/6/1 7/7/1
f 7/7/1 6/6/1 8/8/1
f 7/7/1 8/8/1 2/2/1
f 2/2/1 8/8/1 9/9/1
f 2/2/1 9/9/1 4/4/1
f 8/10/2 10/11/2 9/12/2
f 9/12/2 10/11/2 11/13/2
f 12/14/3 13/15/3 14/16/3
f 15/17/3 16/18/3 17/19/3
f 17/19/3 16/18/3 18/20/3
f 14/16/3 19/21/3 12/14/3
f 12/14/3 19/21/3 17/19/3
f 12/14/3 17/19/3 3/22/3
f 3/22/3 17/19/3 18/20/3
f 3/22/3 18/20/3 20/23/3
f 21/24/3 22/25/3 23/26/3
f 24/27/3 25/28/3 3/22/3
f 23/26/3 24/27/3 21/24/3
f 21/24/3 24/27/3 3/22/3
f 21/24/3 3/22/3 26/29/3
f 26/29/3 3/22/3 20/23/3
f 26/29/3 20/23/3 27/30/3
f 27/30/3 20/23/3 28/31/3
f 29/32/3 30/33/3 31/34/3
f 32/35/3 33/36/3 3/22/3
f 31/34/3 32/35/3 29/32/3
f 29/32/3 32/35/3 3/22/3
f 29/32/3 3/22/3 34/37/3
f 34/37/3 3/22/3 25/28/3
f 34/37/3 25/28/3 35/38/3
f 35/38/3 25/28/3 36/39/3
f 37/40/3 38/41/3 39/42/3
f 40/43/3 41/44/3 3/22/3
f 39/42/3 40/43/3 37/40/3
f 37/40/3 40/43/3 3/22/3
f 37/40/3 3/22/3 42/45/3
f 42/45/3 3/22/3 33/36/3
f 42/45/3 33/36/3 43/46/3
f 43/46/3 33/36/3 44/47/3
f 45/48/3 46/49/3 47/50/3
f 47/50/3 46/49/3 3/22/3
f 47/50/3 3/22/3 48/51/3
f 48/51/3 3/22/3 41/44/3
f 48/51/3 41/44/3 49/52/3
f 49/52/3 41/44/3 50/53/3
f 6/54/4 3/55/4 51/56/4
f 51/56/4 3/55/4 46/57/4
f 8/58/5 6/59/5 10/60/5
f 10/60/5 6/59/5 51/61/5
f 14/62/6 13/63/6 52/64/6
f 52/64/6 13/63/6 11/13/6
f 11/13/6 10/11/6 52/64/6
f 52/64/6 10/11/6 51/65/6
f 52/64/6 51/65/6 53/66/6
f 54/67/6 55/68/6 15/69/6
f 56/70/6 51/65/6 57/71/6
f 57/71/6 51/65/6 46/72/6
f 57/71/6 46/72/6 58/73/6
f 59/74/6 60/75/6 56/70/6
f 56/70/6 60/75/6 61/76/6
f 56/70/6 61/76/6 51/65/6
f 51/65/6 61/76/6 62/77/6
f 63/78/6 64/79/6 62/77/6
f 62/77/6 64/79/6 65/80/6
f 62/77/6 65/80/6 51/65/6
f 51/65/6 65/80/6 66/81/6
f 67/82/6 68/83/6 66/81/6
f 66/81/6 68/83/6 69/84/6
f 66/81/6 69/84/6 51/65/6
f 51/65/6 69/84/6 70/85/6
f 71/86/6 72/87/6 70/85/6
f 70/85/6 72/87/6 73/88/6
f 70/85/6 73/88/6 51/65/6
f 51/65/6 73/88/6 74/89/6
f 75/90/6 76/91/6 74/89/6
f 74/89/6 76/91/6 77/92/6
f 74/89/6 77/92/6 51/65/6
f 51/65/6 77/92/6 78/93/6
f 79/94/6 80/95/6 78/93/6
f 78/93/6 80/95/6 81/96/6
f 78/93/6 81/96/6 51/65/6
f 51/65/6 81/96/6 82/97/6
f 83/98/6 84/99/6 82/97/6
f 82/97/6 84/99/6 85/100/6
f 82/97/6 85/100/6 51/65/6
f 51/65/6 85/100/6 54/67/6
f 51/65/6 54/67/6 53/66/6
f 53/66/6 54/67/6 15/69/6
f 11/13/7 13/101/7 9/12/7
f 9/12/7 13/101/7 86/102/7
f 87/103/4 88/104/4 2/105/4
f 2/105/4 88/104/4 7/106/4
f 88/107/3 89/108/3 7/109/3
f 7/109/3 89/108/3 5/110/3
f 89/111/2 90/112/2 5/113/2
f 5/113/2 90/112/2 1/114/2
f 90/115/5 87/116/5 1/117/5
f 1/117/5 87/116/5 2/118/5
f 90/119/1 89/120/1 87/121/1
f 87/121/1 89/120/1 88/122/1
f 91/123/4 92/124/4 56/125/4
f 56/125/4 92/124/4 59/126/4
f 93/127/2 94/128/2 58/129/2
f 58/129/2 94/128/2 57/130/2
f 94/131/3 91/132/3 57/133/3
f 57/133/3 91/132/3 56/134/3
f 94/135/6 93/136/6 91/137/6
f 91/137/6 93/136/6 92/138/6
f 95/139/4 96/140/4 62/141/4
f 62/141/4 96/140/4 63/142/4
f 97/143/2 98/144/2 60/145/2
f 60/145/2 98/144/2 61/146/2
f 98/147/3 95/148/3 61/149/3
f 61/149/3 95/148/3 62/150/3
f 98/151/6 97/152/6 95/153/6
f 95/153/6 97/152/6 96/154/6
f 99/155/4 100/156/4 66/157/4
f 66/157/4 100/156/4 67/158/4
f 101/159/2 102/160/2 64/161/2
f 64/161/2 102/160/2 65/162/2
f 102/163/3 99/164/3 65/165/3
f 65/165/3 99/164/3 66/166/3
f 102/167/6 101/168/6 99/169/6
f 99/169/6 101/168/6 100/170/6
f 103/171/4 104/172/4 70/173/4
f 70/173/4 104/172/4 71/174/4
f 105/175/2 106/176/2 68/177/2
f 68/177/2 106/176/2 69/178/2
f 106/179/3 103/180/3 69/181/3
f 69/181/3 103/180/3 70/182/3
f 106/183/6 105/184/6 103/185/6
f 103/185/6 105/184/6 104/186/6
f 107/187/4 108/188/4 74/189/4
f 74/189/4 108/188/4 75/190/4
f 109/191/2 110/192/2 72/193/2
f 72/193/2 110/192/2 73/194/2
f 110/195/3 107/196/3 73/197/3
f 73/197/3 107/196/3 74/198/3
f 110/199/6 109/200/6 107/201/6
f 107/201/6 109/200/6 108/202/6
f 111/203/4 112/204/4 78/205/4
f 78/205/4 112/204/4 79/206/4
f 113/207/2 114/208/2 76/209/2
f 76/209/2 114/208/2 77/210/2
f 114/211/3 111/212/3 77/213/3
f 77/213/3 111/212/3 78/214/3
f 114/215/6 113/216/6 111/217/6
f 111/217/6 113/216/6 112/218/6
f 115/219/4 116/220/4 82/221/4
f 82/221/4 116/220/4 83/222/4
f 117/223/2 118/224/2 80/225/2
f 80/225/2 118/224/2 81/226/2
f 118/227/3 115/228/3 81/229/3
f 81/229/3 115/228/3 82/230/3
f 118/231/6 117/232/6 115/233/6
f 115/233/6 117/232/6 116/234/6
f 119/235/4 120/236/4 54/237/4
f 54/237/4 120/236/4 55/238/4
f 121/239/2 122/240/2 84/241/2
f 84/241/2 122/240/2 85/242/2
f 122/243/3 119/244/3 85/245/3
f 85/245/3 119/244/3 54/246/3
f 122/247/6 121/248/6 119/249/6
f 119/249/6 121/248/6 120/250/6
f 17/251/2 123/252/2 15/253/2
f 15/253/2 123/252/2 53/254/2
f 123/255/3 124/256/3 53/257/3
f 53/257/3 124/256/3 52/258/3
f 124/259/4 19/260/4 52/261/4
f 52/261/4 19/260/4 14/262/4
f 124/263/6 123/264/6 19/265/6
f 19/265/6 123/264/6 17/266/6
